<?xml version="1.0" standalone="no"?>
<!DOCTYPE svg PUBLIC "-//W3C//DTD SVG 20010904//EN"
 "http://www.w3.org/TR/2001/REC-SVG-20010904/DTD/svg10.dtd">
<svg version="1.0" xmlns="http://www.w3.org/2000/svg"
 width="800.000000pt" height="800.000000pt" viewBox="0 0 800.000000 800.000000"
 preserveAspectRatio="xMidYMid meet">

<g transform="translate(0.000000,800.000000) scale(0.100000,-0.100000)"
fill="#000000" stroke="none">
<path d="M1733 7195 c-146 -63 -293 -426 -322 -789 -8 -106 0 -223 18 -254 8
-13 10 0 11 48 1 289 94 436 180 287 71 -122 113 -323 114 -537 1 -272 -53
-341 -259 -331 -74 3 -155 92 -155 169 0 18 -5 32 -11 32 -18 0 -122 -76 -166
-122 -49 -51 -63 -83 -63 -147 0 -100 15 -123 329 -501 420 -503 448 -542 531
-714 77 -162 95 -246 95 -461 0 -249 -45 -497 -169 -945 -30 -107 -53 -196
-52 -198 2 -1 60 18 131 43 70 25 130 43 132 41 3 -3 -8 -24 -25 -48 -115
-168 -178 -410 -142 -545 18 -68 18 -67 58 -31 35 32 133 103 196 144 27 17
27 15 -12 -35 -90 -119 -112 -323 -53 -493 23 -68 34 -90 74 -150 l31 -46 60
88 c70 101 152 195 144 165 -4 -11 -19 -65 -34 -120 -26 -89 -29 -116 -29
-245 0 -136 2 -149 26 -200 30 -63 84 -122 136 -149 l37 -18 31 76 c26 66 129
241 141 241 2 0 1 -31 -2 -68 -18 -195 52 -403 182 -540 l54 -57 25 30 c14 17
46 72 71 123 26 50 48 92 49 92 2 0 29 -26 59 -58 113 -118 191 -132 477 -86
309 50 583 35 876 -47 58 -16 110 -28 114 -27 5 2 -12 48 -37 103 -25 55 -48
106 -51 113 -4 10 7 11 53 5 69 -9 440 -10 449 -1 7 7 -48 122 -89 187 l-28
44 29 -6 c189 -38 271 -41 511 -20 l72 6 -35 63 -35 62 38 6 c20 3 64 8 97 12
96 9 283 54 362 85 120 48 194 100 237 169 43 68 41 73 -42 114 -41 20 -73 39
-70 41 2 2 44 18 93 36 247 86 417 199 520 344 46 64 91 153 82 162 -3 3 -40
10 -81 15 -42 6 -76 14 -76 18 0 4 33 54 73 111 40 57 85 127 101 154 61 109
108 257 122 384 6 59 5 64 -11 57 -10 -3 -85 -12 -167 -18 -430 -34 -897 75
-1216 285 -91 59 -217 165 -209 173 2 3 55 -7 118 -20 63 -13 141 -27 174 -30
l60 -7 -25 24 c-14 13 -114 102 -223 196 -108 95 -195 176 -192 180 2 5 44 11
92 15 49 4 103 9 121 13 l33 5 -33 29 c-18 16 -81 66 -140 111 l-107 82 64 22
c189 64 391 257 513 491 55 106 102 249 109 332 l6 68 -209 6 c-455 14 -671
53 -899 162 -132 63 -242 150 -405 319 -375 391 -474 474 -645 545 -149 63
-168 65 -435 66 -265 0 -290 4 -365 56 -49 34 -196 184 -430 439 -307 334
-526 540 -612 577 -41 17 -109 16 -150 -2z"/>
</g>
</svg>
