<?xml version="1.0" standalone="no"?>
<!DOCTYPE svg PUBLIC "-//W3C//DTD SVG 20010904//EN"
 "http://www.w3.org/TR/2001/REC-SVG-20010904/DTD/svg10.dtd">
<svg version="1.0" xmlns="http://www.w3.org/2000/svg"
 width="800.000000pt" height="800.000000pt" viewBox="0 0 800.000000 800.000000"
 preserveAspectRatio="xMidYMid meet">

<g transform="translate(0.000000,800.000000) scale(0.100000,-0.100000)"
fill="#000000" stroke="none">
<path d="M1295 5428 c-62 -49 -126 -247 -124 -385 l1 -68 14 73 c20 110 48
132 83 64 23 -45 51 -174 51 -234 0 -101 -33 -148 -103 -148 -43 0 -87 35 -87
70 0 30 -15 25 -65 -23 -76 -73 -68 -97 98 -295 171 -203 212 -260 249 -339
28 -60 33 -81 36 -170 5 -116 -11 -217 -63 -415 -18 -71 -32 -128 -31 -128 2
0 29 9 60 20 32 11 56 16 54 12 -65 -124 -85 -195 -74 -257 l7 -35 52 39 c28
22 53 39 54 37 1 -1 -7 -20 -18 -43 -29 -60 -28 -147 5 -218 14 -30 29 -55 33
-55 4 1 26 26 47 56 22 30 41 52 43 50 2 -2 -3 -29 -12 -62 -29 -112 -15 -199
40 -242 15 -12 30 -22 34 -21 3 0 22 32 41 72 l35 71 7 -82 c7 -90 33 -154 79
-198 l28 -26 31 56 32 56 28 -29 c53 -52 77 -56 212 -36 139 21 250 16 368
-15 41 -10 76 -17 78 -16 2 2 -6 22 -17 45 -12 22 -21 43 -21 46 0 3 52 5 116
5 l116 0 -26 46 c-14 26 -26 47 -26 49 0 1 59 0 132 -3 125 -5 131 -4 126 14
-3 11 -7 26 -9 34 -3 10 11 16 56 22 109 14 196 46 237 88 21 21 38 43 38 49
0 6 -15 18 -32 27 l-33 17 25 10 c150 60 223 110 266 183 15 25 25 47 23 49
-2 2 -18 7 -36 12 l-32 8 44 69 c47 72 78 147 88 206 l5 36 -146 0 c-173 0
-277 22 -407 84 -87 42 -192 126 -145 116 14 -2 48 -8 75 -11 58 -8 63 -15
-69 101 l-79 69 58 10 57 10 -61 45 c-33 25 -60 48 -61 51 0 4 12 10 26 13 73
19 184 127 233 229 30 60 54 154 45 169 -3 5 -60 8 -127 8 -278 0 -414 60
-597 260 -167 182 -261 230 -451 230 -75 0 -119 4 -137 14 -15 8 -115 105
-222 217 -248 258 -292 287 -355 237z"/>
<path d="M4695 4391 c-51 -13 -94 -40 -110 -71 -20 -38 -20 -142 0 -180 23
-44 85 -71 175 -77 130 -9 227 34 245 110 l7 27 -63 0 c-45 0 -68 -5 -82 -17
-13 -13 -36 -18 -79 -18 -51 0 -63 4 -79 24 -10 13 -19 31 -19 41 0 10 9 28
19 41 16 20 28 24 79 24 43 0 66 -5 79 -18 14 -12 37 -17 82 -17 l63 0 -6 28
c-10 43 -66 88 -125 101 -57 12 -140 13 -186 2z"/>
<path d="M3746 4230 c-47 -88 -86 -163 -86 -165 0 -3 31 -5 69 -5 67 0 69 1
81 30 12 30 12 30 97 30 l84 0 10 -30 c11 -30 12 -30 84 -30 l74 0 -50 93
c-28 50 -66 125 -87 165 l-36 72 -77 0 -77 0 -86 -160z m184 20 c11 -21 20
-42 20 -45 0 -3 -20 -5 -45 -5 l-45 0 22 45 c12 25 23 45 25 45 1 0 12 -18 23
-40z"/>
<path d="M4170 4225 l0 -165 190 0 190 0 0 50 0 49 -127 3 -128 3 -3 113 -3
112 -59 0 -60 0 0 -165z"/>
<path d="M5086 4230 c-47 -88 -86 -163 -86 -165 0 -3 31 -5 69 -5 67 0 69 1
81 30 12 30 12 30 97 30 l84 0 10 -30 c11 -30 12 -30 84 -30 l74 0 -50 93
c-28 50 -66 125 -87 165 l-36 72 -77 0 -77 0 -86 -160z m184 20 c11 -21 20
-42 20 -45 0 -3 -20 -5 -45 -5 l-45 0 22 45 c12 25 23 45 25 45 1 0 12 -18 23
-40z"/>
<path d="M5410 4340 l0 -49 73 -3 72 -3 3 -112 3 -113 59 0 59 0 3 113 3 112
78 3 77 3 0 49 0 50 -215 0 -215 0 0 -50z"/>
<path d="M5890 4225 l0 -165 190 0 190 0 0 40 0 39 -127 3 c-120 3 -128 4
-128 23 0 19 8 20 128 23 l127 3 0 34 0 35 -131 0 c-130 0 -130 0 -127 23 3
21 7 22 131 25 l127 3 0 39 0 40 -190 0 -190 0 0 -165z"/>
<path d="M6340 4225 l0 -165 60 0 60 0 0 165 0 165 -60 0 -60 0 0 -165z"/>
<path d="M6566 4230 c-47 -88 -86 -163 -86 -165 0 -3 31 -5 69 -5 67 0 69 1
81 30 12 30 12 30 97 30 l84 0 10 -30 c11 -30 12 -30 84 -30 l74 0 -50 93
c-28 50 -66 125 -87 165 l-36 72 -77 0 -77 0 -86 -160z m184 20 c11 -21 20
-42 20 -45 0 -3 -20 -5 -45 -5 l-45 0 22 45 c12 25 23 45 25 45 1 0 12 -18 23
-40z"/>
<path d="M5520 3885 c0 -9 9 -15 25 -15 24 0 25 -2 25 -75 0 -59 3 -75 15 -75
11 0 15 17 17 73 3 66 5 72 26 75 12 2 22 10 22 18 0 11 -15 14 -65 14 -51 0
-65 -3 -65 -15z"/>
<path d="M5670 3810 l0 -90 60 0 c46 0 60 3 60 14 0 10 -14 16 -42 18 -31 2
-44 8 -46 21 -3 14 4 17 37 17 55 0 58 27 4 32 -30 2 -38 7 -38 23 0 16 8 21
43 23 28 2 42 8 42 18 0 11 -14 14 -60 14 l-60 0 0 -90z"/>
<path d="M5842 3884 c-18 -13 -22 -25 -22 -74 0 -49 4 -61 22 -74 12 -9 32
-16 44 -16 22 0 54 28 54 48 0 18 -21 14 -36 -5 -22 -30 -49 -4 -49 47 0 51
27 77 49 48 16 -21 36 -24 36 -5 0 20 -33 47 -56 47 -11 0 -30 -7 -42 -16z"/>
<path d="M5980 3810 c0 -73 3 -90 15 -90 12 0 15 13 15 58 l1 57 30 -57 c21
-41 35 -58 49 -58 18 0 20 7 20 90 0 72 -3 90 -15 90 -10 0 -15 -16 -17 -62
l-3 -63 -29 63 c-20 43 -34 62 -47 62 -17 0 -19 -9 -19 -90z"/>
<path d="M6172 3884 c-18 -13 -22 -25 -22 -74 0 -49 4 -61 22 -74 56 -40 98
-7 98 76 0 80 -42 111 -98 72z m66 -68 c4 -55 -6 -71 -37 -61 -18 5 -21 14
-21 55 0 48 9 61 40 57 11 -2 16 -17 18 -51z"/>
<path d="M6310 3810 l0 -90 55 0 c42 0 55 3 55 15 0 11 -11 15 -40 15 l-40 0
0 75 c0 60 -3 75 -15 75 -12 0 -15 -17 -15 -90z"/>
<path d="M6460 3880 c-15 -15 -20 -33 -20 -70 0 -57 24 -90 65 -90 41 0 65 33
65 90 0 57 -24 90 -65 90 -14 0 -34 -9 -45 -20z m69 -24 c18 -21 10 -87 -12
-100 -15 -9 -21 -7 -33 8 -37 51 6 139 45 92z"/>
<path d="M6620 3880 c-17 -17 -20 -31 -18 -78 3 -49 7 -58 29 -71 48 -27 99 9
99 69 0 16 -7 20 -30 20 -20 0 -30 -5 -30 -15 0 -8 5 -15 10 -15 16 0 11 -27
-6 -34 -26 -10 -44 13 -44 54 0 48 18 65 54 49 34 -16 44 -5 21 21 -23 26 -59
26 -85 0z"/>
<path d="M6760 3810 c0 -73 3 -90 15 -90 12 0 15 17 15 90 0 73 -3 90 -15 90
-12 0 -15 -17 -15 -90z"/>
<path d="M6869 3873 c-61 -157 -60 -153 -39 -153 11 0 20 7 20 15 0 11 11 15
35 15 22 0 38 -6 41 -15 7 -16 34 -21 34 -6 0 21 -62 171 -71 171 -5 0 -14
-12 -20 -27z m36 -70 c5 -19 2 -23 -14 -23 -23 0 -24 3 -15 38 7 26 18 20 29
-15z"/>
</g>
</svg>
