<?xml version="1.0" standalone="no"?>
<!DOCTYPE svg PUBLIC "-//W3C//DTD SVG 20010904//EN"
 "http://www.w3.org/TR/2001/REC-SVG-20010904/DTD/svg10.dtd">
<svg version="1.0" xmlns="http://www.w3.org/2000/svg"
 width="800.000000pt" height="800.000000pt" viewBox="0 0 800.000000 800.000000"
 preserveAspectRatio="xMidYMid meet">

<g transform="translate(0.000000,800.000000) scale(0.100000,-0.100000)"
fill="#000000" stroke="none">
<path d="M1735 7196 c-169 -74 -334 -533 -324 -901 3 -82 8 -128 17 -137 9
-10 12 0 12 48 0 276 94 429 176 288 116 -198 161 -627 84 -789 -23 -49 -57
-70 -130 -83 -68 -13 -128 -2 -175 29 -39 26 -75 90 -75 132 0 14 -4 29 -10
32 -13 8 -115 -63 -167 -117 -49 -51 -63 -83 -63 -147 0 -101 13 -121 343
-515 355 -425 438 -537 512 -691 83 -173 100 -252 100 -475 -1 -250 -40 -469
-164 -922 -32 -117 -57 -214 -56 -215 1 -2 59 18 130 42 70 25 129 44 131 42
2 -2 -18 -41 -45 -86 -122 -202 -159 -400 -105 -559 2 -9 23 3 61 36 49 42
138 105 193 137 8 5 2 -6 -13 -24 -67 -81 -99 -184 -99 -319 0 -127 47 -274
115 -356 l24 -29 62 89 c34 49 80 109 102 134 34 38 40 41 35 20 -4 -14 -19
-68 -33 -120 -22 -79 -26 -118 -27 -230 -1 -156 8 -196 62 -268 35 -48 103
-102 128 -102 6 0 21 26 33 58 18 51 115 219 142 247 6 5 7 -19 3 -65 -15
-189 48 -389 166 -523 68 -77 73 -77 119 -5 22 35 52 91 67 125 l26 61 58 -62
c113 -120 193 -136 466 -92 87 14 211 29 274 32 184 10 427 -21 643 -83 49
-14 90 -23 92 -21 3 2 -16 49 -41 104 -25 54 -48 105 -51 112 -4 10 9 11 63 5
77 -9 431 -9 440 -1 6 6 -53 128 -92 190 -28 44 -29 44 81 22 94 -18 247 -22
398 -11 l108 9 -36 64 c-20 35 -34 64 -33 64 43 0 271 36 344 55 222 56 349
133 400 240 l24 50 -73 36 c-39 20 -71 40 -70 44 1 4 45 22 97 40 244 85 422
206 520 353 42 63 80 141 73 148 -2 2 -38 9 -80 15 -42 6 -77 15 -77 19 0 4
34 56 76 116 134 191 200 350 220 530 l6 61 -63 -10 c-111 -18 -469 -14 -594
6 -382 62 -687 194 -901 390 -30 27 -53 51 -51 53 2 3 55 -7 118 -20 63 -13
141 -27 174 -30 l60 -6 -30 27 c-16 14 -117 102 -222 196 -106 93 -193 172
-193 177 0 4 39 10 88 14 48 4 104 10 124 13 l37 5 -72 62 c-40 33 -103 83
-140 111 l-67 49 65 24 c198 71 379 242 508 483 57 104 105 249 113 338 l7 68
-214 6 c-454 14 -666 52 -895 162 -136 65 -242 150 -409 324 -359 375 -462
462 -633 536 -43 19 -119 44 -168 56 -81 19 -107 20 -289 15 -289 -10 -307 -3
-501 196 -61 62 -187 196 -280 298 -296 323 -499 516 -599 569 -45 24 -114 27
-160 7z"/>
</g>
</svg>
