<?xml version="1.0" standalone="no"?>
<!DOCTYPE svg PUBLIC "-//W3C//DTD SVG 20010904//EN"
 "http://www.w3.org/TR/2001/REC-SVG-20010904/DTD/svg10.dtd">
<svg version="1.0" xmlns="http://www.w3.org/2000/svg"
 width="800.000000pt" height="800.000000pt" viewBox="0 0 800.000000 800.000000"
 preserveAspectRatio="xMidYMid meet">

<g transform="translate(0.000000,800.000000) scale(0.100000,-0.100000)"
fill="#000000" stroke="none">
<path d="M1735 7196 c-94 -41 -202 -222 -260 -438 -58 -214 -82 -475 -53 -573
12 -38 12 -34 20 80 4 66 15 143 23 172 18 60 58 113 86 113 78 0 174 -282
186 -550 9 -190 -24 -322 -88 -356 -83 -42 -200 -37 -264 12 -32 24 -65 86
-65 122 0 9 -4 23 -9 31 -18 28 -197 -120 -220 -182 -16 -43 -13 -111 8 -171
15 -44 73 -119 302 -393 155 -186 317 -383 359 -439 136 -177 216 -332 256
-494 28 -112 26 -409 -4 -580 -30 -166 -83 -393 -147 -625 -28 -104 -51 -191
-50 -192 1 -2 59 18 129 43 70 25 130 44 132 41 2 -2 -18 -41 -45 -86 -114
-189 -158 -405 -111 -539 l12 -33 42 39 c35 32 149 114 206 147 8 5 2 -6 -13
-24 -117 -140 -133 -386 -37 -586 16 -33 40 -73 53 -89 l24 -30 56 85 c71 105
152 196 142 159 -3 -14 -17 -68 -31 -120 -18 -64 -28 -133 -31 -211 -7 -153
14 -231 83 -308 43 -47 89 -81 112 -81 5 0 19 26 31 58 17 49 115 218 139 244
4 4 7 -48 8 -115 1 -139 17 -215 68 -322 35 -75 108 -171 150 -198 l25 -17 37
57 c21 32 51 88 67 126 l30 67 56 -61 c111 -123 194 -140 470 -94 333 54 593
40 914 -52 49 -14 90 -23 92 -21 2 1 -19 52 -46 112 -27 61 -47 111 -45 113 1
2 52 -2 112 -8 96 -10 380 -6 391 5 5 5 -59 134 -93 188 -28 45 -29 44 87 22
96 -19 237 -23 392 -11 l108 9 -36 63 -35 64 32 5 c18 3 76 10 128 17 52 6
138 22 190 35 217 55 346 132 396 239 l24 50 -73 36 c-39 20 -71 40 -70 44 1
4 44 22 95 39 248 87 424 207 522 354 42 63 80 141 73 148 -2 2 -38 9 -80 15
-42 6 -77 15 -77 19 0 4 34 56 76 116 134 191 200 350 220 530 l6 61 -63 -10
c-109 -17 -469 -14 -594 6 -375 59 -687 194 -901 390 -30 27 -53 51 -51 53 2
2 57 -7 123 -20 65 -13 144 -27 173 -30 54 -5 54 -5 35 13 -10 10 -110 98
-221 195 -112 98 -203 181 -203 186 0 4 39 10 88 14 48 4 104 10 124 13 l37 5
-72 62 c-40 33 -103 83 -140 111 l-67 49 65 24 c205 73 402 268 529 520 41 82
85 226 92 303 l7 69 -124 0 c-295 0 -601 34 -784 86 -114 33 -290 119 -380
186 -38 28 -140 124 -225 212 -368 381 -439 444 -590 518 -168 83 -275 102
-512 93 -277 -10 -300 -1 -494 197 -61 62 -191 201 -290 308 -301 326 -490
506 -589 559 -45 24 -114 27 -160 7z"/>
</g>
</svg>
